<svg width="111" height="121" viewBox="0 0 111 113" fill="none" xmlns="http://www.w3.org/2000/svg">
<g clip-path="url(#clip0_1_635)">
<path d="M69.1808 93.5955H41.4327V107.842H69.1808V93.5955Z" fill="black"/>
<path d="M41.0333 83.5444C31.9954 79.9895 24.4463 73.239 19.7069 64.4743C14.9675 55.7097 13.3397 45.4891 15.1086 35.6012C16.8774 25.7133 21.9301 16.7878 29.3825 10.3867C36.8348 3.98568 46.2121 0.516748 55.8734 0.586983C65.5347 0.657219 74.8646 4.26213 82.2303 10.7709C89.5961 17.2797 94.5287 26.2777 96.1647 36.1904C97.8007 46.1031 96.036 56.299 91.1795 64.9939C86.3231 73.6888 78.684 80.3288 69.5993 83.7521C65.3702 83.5444 45.2623 83.5444 41.0333 83.5444Z" fill="#FAD146"/>
<path d="M8.85704 88.7777C10.6088 88.7777 12.3212 89.3185 13.7778 90.3317C15.2343 91.3448 16.3696 92.7848 17.0399 94.4696C17.7103 96.1544 17.8856 98.0084 17.5439 99.797C17.2021 101.586 16.3587 103.228 15.12 104.518C13.8813 105.807 12.3031 106.686 10.585 107.041C8.86689 107.397 7.08605 107.215 5.46764 106.517C3.84922 105.819 2.46594 104.637 1.49271 103.121C0.519488 101.604 0 99.8218 0 97.9981C0 96.7873 0.229169 95.5883 0.674277 94.4696C1.11938 93.3509 1.77177 92.3345 2.59423 91.4783C3.41668 90.6221 4.39305 89.943 5.46764 89.4796C6.54222 89.0162 7.69392 88.7777 8.85704 88.7777Z" fill="#FAD146"/>
<path d="M103.192 69.0909C104.707 69.0909 106.188 69.5585 107.448 70.4348C108.708 71.311 109.689 72.5565 110.269 74.0136C110.849 75.4708 111.001 77.0742 110.705 78.6211C110.409 80.168 109.68 81.5888 108.609 82.7041C107.537 83.8193 106.172 84.5788 104.686 84.8865C103.201 85.1942 101.66 85.0363 100.261 84.4327C98.861 83.8291 97.6648 82.807 96.8231 81.4956C95.9814 80.1842 95.532 78.6425 95.532 77.0653C95.532 74.9504 96.3391 72.922 97.7757 71.4265C99.2122 69.931 101.16 69.0909 103.192 69.0909Z" fill="#FAD146"/>
<path d="M107.401 41.8865C107.76 41.8865 108.111 41.9973 108.41 42.2049C108.708 42.4126 108.941 42.7077 109.078 43.053C109.216 43.3983 109.252 43.7783 109.182 44.1449C109.112 44.5115 108.939 44.8482 108.685 45.1125C108.431 45.3768 108.108 45.5567 107.755 45.6297C107.403 45.7026 107.038 45.6652 106.707 45.5222C106.375 45.3791 106.091 45.1369 105.892 44.8261C105.692 44.5154 105.586 44.15 105.586 43.7762C105.586 43.528 105.633 43.2823 105.724 43.053C105.815 42.8237 105.949 42.6154 106.118 42.4399C106.286 42.2644 106.486 42.1252 106.707 42.0303C106.927 41.9353 107.163 41.8865 107.401 41.8865Z" fill="white"/>
<path d="M93.717 3.77943C94.7196 3.77943 95.5323 2.93335 95.5323 1.88965C95.5323 0.845959 94.7196 -0.00012207 93.717 -0.00012207C92.7145 -0.00012207 91.9017 0.845959 91.9017 1.88965C91.9017 2.93335 92.7145 3.77943 93.717 3.77943Z" fill="white"/>
<path d="M88.7098 97.998C89.0697 97.9981 89.4214 98.1094 89.7204 98.318C90.0193 98.5266 90.252 98.823 90.3888 99.1695C90.5256 99.5161 90.5603 99.8971 90.4886 100.264C90.4169 100.631 90.2421 100.968 89.9863 101.231C89.7304 101.495 89.4051 101.673 89.0517 101.744C88.6982 101.814 88.3325 101.774 88.0012 101.628C87.6698 101.482 87.3878 101.236 87.1908 100.923C86.9937 100.609 86.8907 100.242 86.8947 99.867C86.6952 98.8287 87.4929 97.998 88.7098 97.998Z" fill="white"/>
<path d="M26.95 95.4855C27.3107 95.4814 27.6644 95.5892 27.966 95.7953C28.2675 96.0013 28.5033 96.2963 28.6432 96.6424C28.783 96.9886 28.8207 97.3702 28.7513 97.7387C28.6819 98.1072 28.5086 98.4459 28.2535 98.7114C27.9985 98.9769 27.6732 99.1573 27.3192 99.2296C26.9652 99.3018 26.5985 99.2627 26.266 99.1171C25.9335 98.9715 25.6503 98.726 25.4523 98.4121C25.2544 98.0982 25.1507 97.73 25.1546 97.3545C25.1546 96.8588 25.3438 96.3834 25.6805 96.0329C26.0172 95.6824 26.4739 95.4855 26.95 95.4855Z" fill="white"/>
<path d="M15.6993 1.26684C16.0583 1.26684 16.4094 1.37765 16.7079 1.5853C17.0064 1.79295 17.239 2.08807 17.3764 2.43339C17.5138 2.7787 17.5497 3.15869 17.4797 3.52527C17.4096 3.89186 17.2368 4.2286 16.9829 4.49289C16.729 4.75718 16.4056 4.93711 16.0534 5.01003C15.7013 5.08294 15.3364 5.04551 15.0047 4.90248C14.673 4.75945 14.3895 4.51727 14.19 4.20649C13.9905 3.89572 13.884 3.53032 13.884 3.15656C13.8814 2.90762 13.9265 2.66062 14.0167 2.43009C14.107 2.19956 14.2407 1.99012 14.4098 1.81408C14.5789 1.63805 14.78 1.49898 15.0015 1.405C15.2229 1.31101 15.4601 1.26406 15.6993 1.26684Z" fill="white"/>
<path d="M3.23139 56.1116C3.59042 56.1116 3.94148 56.2224 4.24001 56.4301C4.53853 56.6377 4.77116 56.9329 4.90856 57.2782C5.04596 57.6235 5.08185 58.0035 5.01181 58.3701C4.94176 58.7367 4.76892 59.0733 4.51505 59.3376C4.26118 59.6019 3.93771 59.7819 3.58557 59.8548C3.23344 59.9277 2.86848 59.8903 2.53678 59.7473C2.20508 59.6042 1.92159 59.3621 1.72212 59.0513C1.52265 58.7405 1.41615 58.3751 1.41615 58.0014C1.21667 57.0461 2.01454 56.1116 3.23139 56.1116Z" fill="white"/>
<path d="M83.8825 43.9839C83.5675 43.9599 83.2712 43.8187 83.0478 43.5862C82.8244 43.3536 82.6888 43.0452 82.6657 42.7172C82.6657 35.1661 79.7842 27.9244 74.6552 22.585C69.5263 17.2456 62.5699 14.246 55.3165 14.246C48.063 14.246 41.1068 17.2456 35.9778 22.585C30.8489 27.9244 27.9674 35.1661 27.9674 42.7172C27.9895 42.8957 27.9748 43.0771 27.9242 43.2493C27.8737 43.4214 27.7886 43.5804 27.6744 43.7156C27.5602 43.8508 27.4196 43.959 27.262 44.0332C27.1044 44.1074 26.9335 44.1458 26.7606 44.1458C26.5877 44.1458 26.4167 44.1074 26.2591 44.0332C26.1015 43.959 25.961 43.8508 25.8468 43.7156C25.7326 43.5804 25.6474 43.4214 25.5969 43.2493C25.5463 43.0771 25.5316 42.8957 25.5537 42.7172C25.5537 34.4997 28.6894 26.6188 34.2711 20.8081C39.8527 14.9975 47.4229 11.7332 55.3165 11.7332C63.2101 11.7332 70.7804 14.9975 76.362 20.8081C81.9436 26.6188 85.0794 34.4997 85.0794 42.7172C85.061 43.0434 84.9294 43.3515 84.7093 43.5845C84.4892 43.8174 84.1955 43.9593 83.8825 43.9839Z" fill="white"/>
<path d="M62.9569 36.4454C61.1837 36.4455 59.4669 37.0945 58.1067 38.2789C56.7466 39.4633 55.8295 41.1077 55.516 42.9246H55.1172C54.834 41.093 53.9255 39.4292 52.5586 38.2389C51.1917 37.0487 49.4582 36.4118 47.6765 36.4454C45.6502 36.4454 43.7068 37.2834 42.274 38.775C40.8412 40.2666 40.0363 42.2896 40.0363 44.3991C40.0363 46.5085 40.8412 48.5315 42.274 50.0231C43.7068 51.5147 45.6502 52.3527 47.6765 52.3527C48.9195 52.3546 50.1426 52.0279 51.2312 51.4031C52.3198 50.7784 53.2383 49.876 53.9003 48.7808V83.752C53.9234 84.08 54.059 84.3884 54.2824 84.621C54.5058 84.8536 54.8021 84.9948 55.1172 85.0188C55.4301 84.9942 55.724 84.8523 55.9441 84.6193C56.1642 84.3864 56.2956 84.0782 56.314 83.752V48.5732C57.1943 50.0351 58.5116 51.1553 60.0633 51.7616C61.615 52.3679 63.315 52.4265 64.9018 51.9286C66.4887 51.4306 67.8744 50.4036 68.8457 49.0057C69.8171 47.6077 70.3202 45.9162 70.2778 44.1914C70.3047 43.1771 70.1347 42.1675 69.7779 41.2233C69.421 40.279 68.8848 39.4195 68.2011 38.6962C67.5175 37.9729 66.7005 37.4007 65.7994 37.014C64.8983 36.6272 63.9316 36.4338 62.9569 36.4454Z" fill="white"/>
<path d="M69.1808 104.477H41.4327V112.431H69.1808V104.477Z" fill="#1188E7"/>
<path d="M69.1808 83.5444V96.7313H41.4327V83.5444H55.3167H69.1808Z" fill="#1188E7"/>
</g>
<defs>
<clipPath id="clip0_1_635">
<rect width="110.813" height="112.431" fill="white"/>
</clipPath>
</defs>
</svg>
