<svg width="111" height="121" viewBox="0 0 101 105" fill="none" xmlns="http://www.w3.org/2000/svg">
<g clip-path="url(#clip0_1_587)">
<path d="M18.1606 4.54021C18.8463 4.53665 19.5176 4.73692 20.0892 5.11565C20.6608 5.49437 21.1071 6.03442 21.3711 6.66723C21.6352 7.30004 21.7053 7.99704 21.5724 8.66972C21.4395 9.3424 21.1095 9.96045 20.6247 10.4453C20.1398 10.9302 19.5219 11.26 18.8492 11.3929C18.1765 11.5258 17.4794 11.4557 16.8466 11.1917C16.2138 10.9276 15.6737 10.4815 15.295 9.90989C14.9163 9.33828 14.7161 8.66703 14.7197 7.98135C14.7197 7.0687 15.0822 6.19342 15.7276 5.54808C16.3729 4.90274 17.248 4.54021 18.1606 4.54021Z" fill="#FAD146"/>
<path d="M81.2003 -0.000139676C82.5478 -0.000139676 83.84 0.535138 84.7928 1.48794C85.7456 2.44074 86.2809 3.73304 86.2809 5.0805C86.2809 6.42797 85.7456 7.72026 84.7928 8.67306C83.84 9.62586 82.5478 10.1611 81.2003 10.1611C79.8584 10.1381 78.5775 9.59601 77.6267 8.64865C76.676 7.70129 76.1293 6.42237 76.1016 5.0805C76.0867 4.40771 76.2086 3.73889 76.4598 3.11457C76.711 2.49026 77.0863 1.92347 77.563 1.44846C78.0397 0.973455 78.6079 0.600133 79.2331 0.351139C79.8583 0.102144 80.5276 -0.0173713 81.2003 -0.000139676Z" fill="#FAD146"/>
<path d="M41.9605 30.5019H5.6394V23.0611C5.63222 22.2491 5.78667 21.4437 6.09355 20.6919C6.40043 19.9401 6.85361 19.2568 7.42697 18.6818C8.00032 18.1067 8.68223 17.6514 9.43314 17.3424C10.1841 17.0333 10.9891 16.8766 11.8011 16.8815H41.9605V30.5019Z" fill="#618BAA"/>
<path d="M94.2801 23.7996H41.9604V30.6998H94.2801V23.7996Z" fill="#1188E7"/>
<path d="M94.2799 23.061V23.7816H42.0323V16.8813H88.1726C88.98 16.8837 89.7789 17.0457 90.5236 17.3579C91.2682 17.6702 91.9439 18.1266 92.5115 18.7009C93.0791 19.2752 93.5275 19.9561 93.8311 20.7043C94.1346 21.4526 94.2871 22.2535 94.2799 23.061Z" fill="#99BCE4"/>
<path d="M41.9605 30.502H5.6394V98.2616C5.63222 99.0736 5.78667 99.879 6.09355 100.631C6.40043 101.383 6.85361 102.066 7.42697 102.641C8.00032 103.216 8.68223 103.671 9.43314 103.98C10.184 104.289 10.9891 104.446 11.8011 104.441H88.1005C88.9141 104.448 89.7208 104.294 90.4738 103.986C91.2268 103.678 91.911 103.223 92.4863 102.647C93.0616 102.072 93.5164 101.388 93.8244 100.635C94.1324 99.882 94.2873 99.0752 94.2801 98.2616V30.502H41.9605Z" fill="#FAD146"/>
<path d="M85.1818 39.6V95.1806H14.7196V39.6H85.1818Z" fill="white"/>
<path d="M99.3607 14.7015C99.685 14.7015 100.002 14.7977 100.272 14.9779C100.541 15.158 100.751 15.4141 100.875 15.7136C100.999 16.0132 101.032 16.3429 100.969 16.6609C100.905 16.979 100.749 17.271 100.52 17.5003C100.291 17.7296 99.9986 17.8858 99.6805 17.949C99.3625 18.0123 99.0329 17.9798 98.7333 17.8557C98.4337 17.7316 98.1778 17.5215 97.9976 17.2519C97.8175 16.9823 97.7212 16.6653 97.7212 16.341C97.7212 15.9062 97.894 15.4892 98.2015 15.1817C98.509 14.8743 98.9259 14.7015 99.3607 14.7015Z" fill="white"/>
<path d="M65.2018 5.62125C65.5268 5.61768 65.8454 5.71078 66.1174 5.88874C66.3894 6.0667 66.6024 6.32147 66.7292 6.62071C66.8561 6.91996 66.8912 7.25016 66.83 7.56937C66.7688 7.88857 66.614 8.18241 66.3855 8.4135C66.1569 8.64459 65.8648 8.80253 65.5462 8.86726C65.2277 8.932 64.8972 8.90058 64.5966 8.77704C64.296 8.6535 64.0388 8.44339 63.8579 8.1734C63.6769 7.90341 63.5803 7.58572 63.5803 7.2607C63.5803 6.82898 63.7505 6.41468 64.054 6.10773C64.3576 5.80078 64.7702 5.626 65.2018 5.62125Z" fill="white"/>
<path d="M44.8611 10.1613C45.1854 10.1613 45.5024 10.2574 45.772 10.4376C46.0417 10.6177 46.2517 10.8738 46.3757 11.1734C46.4998 11.473 46.5323 11.8026 46.469 12.1206C46.4057 12.4387 46.2496 12.7308 46.0203 12.9601C45.7911 13.1894 45.4989 13.3456 45.1809 13.4088C44.8629 13.4721 44.5332 13.4396 44.2337 13.3155C43.9341 13.1914 43.6782 12.9813 43.498 12.7116C43.3179 12.442 43.2216 12.1251 43.2216 11.8008C43.2216 11.366 43.3944 10.949 43.7019 10.6415C44.0093 10.3341 44.4263 10.1613 44.8611 10.1613Z" fill="white"/>
<path d="M33.3484 3.44116C33.6727 3.44116 33.9897 3.53735 34.2594 3.7175C34.529 3.89765 34.739 4.15369 34.8631 4.45327C34.9871 4.75284 35.0196 5.08252 34.9563 5.40055C34.893 5.71858 34.7369 6.01066 34.5077 6.23995C34.2784 6.46924 33.9862 6.6254 33.6682 6.68866C33.3502 6.75192 33.0205 6.71944 32.721 6.59535C32.4214 6.47126 32.1655 6.26116 31.9853 5.99154C31.8052 5.72193 31.7089 5.40492 31.7089 5.08066C31.7089 4.64584 31.8817 4.22884 32.1892 3.92137C32.4966 3.61391 32.9136 3.44116 33.3484 3.44116Z" fill="white"/>
<path d="M28.3399 21.4216C28.9658 21.4216 29.5663 21.6702 30.0089 22.1129C30.4515 22.5555 30.7001 23.1558 30.7001 23.7817C30.7001 24.4077 30.4515 25.008 30.0089 25.4506C29.5663 25.8932 28.9658 26.1419 28.3399 26.1419C27.7168 26.1326 27.122 25.8809 26.6814 25.4403C26.2408 24.9997 25.9892 24.4048 25.9799 23.7817C26.0219 23.1696 26.2841 22.5935 26.7179 22.1596C27.1518 21.7258 27.7278 21.4636 28.3399 21.4216Z" fill="black"/>
<path d="M21.6197 21.4216C22.2456 21.4216 22.8459 21.6702 23.2885 22.1129C23.7311 22.5555 23.9799 23.1558 23.9799 23.7817C23.9799 24.4077 23.7311 25.008 23.2885 25.4506C22.8459 25.8932 22.2456 26.1419 21.6197 26.1419C20.9937 26.1419 20.3935 25.8932 19.9509 25.4506C19.5083 25.008 19.2596 24.4077 19.2596 23.7817C19.2596 23.1558 19.5083 22.5555 19.9509 22.1129C20.3935 21.6702 20.9937 21.4216 21.6197 21.4216Z" fill="#FEDE93"/>
<path d="M14.7195 21.4216C15.1855 21.4251 15.6399 21.5666 16.0256 21.828C16.4114 22.0895 16.7112 22.4594 16.8871 22.891C17.0629 23.3225 17.1071 23.7965 17.014 24.2531C16.9209 24.7098 16.6946 25.1286 16.3639 25.4568C16.0331 25.7851 15.6125 26.0081 15.1552 26.0978C14.6978 26.1874 14.2242 26.1396 13.794 25.9604C13.3638 25.7813 12.9963 25.4788 12.7377 25.091C12.4792 24.7033 12.3412 24.2477 12.3412 23.7817C12.3911 23.1694 12.6581 22.595 13.0942 22.1622C13.5303 21.7295 14.1068 21.4668 14.7195 21.4216Z" fill="#1188E7"/>
<path d="M1.6399 14.7013C1.96416 14.7013 2.281 14.7975 2.55062 14.9777C2.82023 15.1578 3.03045 15.4139 3.15454 15.7134C3.27863 16.013 3.31105 16.3427 3.24779 16.6607C3.18453 16.9787 3.02842 17.2708 2.79913 17.5001C2.56985 17.7294 2.2777 17.8856 1.95967 17.9488C1.64164 18.0121 1.31203 17.9796 1.01245 17.8555C0.712871 17.7314 0.456723 17.5213 0.276574 17.2517C0.0964238 16.9821 0.000345424 16.6651 0.000345424 16.3408C-0.00206789 16.1249 0.0386679 15.9106 0.120206 15.7106C0.201743 15.5106 0.322443 15.3289 0.475168 15.1762C0.627892 15.0234 0.809587 14.9028 1.00959 14.8212C1.20959 14.7397 1.42393 14.6989 1.6399 14.7013Z" fill="white"/>
<path d="M67.5798 89.5416H49.9416C49.6767 89.5074 49.4332 89.378 49.2568 89.1774C49.0804 88.9767 48.9832 88.7187 48.9832 88.4515C48.9832 88.1844 49.0804 87.9264 49.2568 87.7258C49.4332 87.5252 49.6767 87.3957 49.9416 87.3616H67.5798C67.7906 87.3676 67.9995 87.3213 68.1881 87.227C68.3767 87.1327 68.539 86.9933 68.6607 86.8211C68.82 86.6835 68.9499 86.5154 69.0427 86.3266C69.1356 86.1377 69.1896 85.9322 69.2013 85.7221C69.2013 85.292 69.0303 84.8796 68.7263 84.5755C68.4222 84.2714 68.0098 84.1006 67.5798 84.1006H33.0603C32.7757 84.0798 32.5081 83.9573 32.3064 83.7555C32.1046 83.5537 31.9822 83.2862 31.9613 83.0016C31.9826 82.7189 32.1058 82.4536 32.3079 82.2548C32.51 82.056 32.7773 81.9372 33.0603 81.9206H67.5798C68.5865 81.9253 69.5508 82.3274 70.2627 83.0393C70.9746 83.7511 71.3765 84.7153 71.3812 85.7221C71.3987 86.2268 71.3125 86.7298 71.1279 87.1999C70.9432 87.67 70.664 88.0973 70.3078 88.4553C69.9515 88.8133 69.5256 89.0943 69.0564 89.2812C68.5871 89.468 68.0846 89.5566 67.5798 89.5416Z" fill="black"/>
<path d="M43.6 72.4799L45.0413 79.0199L33.0604 83.0196L37.0601 70.8405L43.6 72.4799Z" fill="#A5ABAF"/>
<path d="M64.3008 59.7603L45.0413 79.0198L43.6 72.4798L60.3012 55.7606L64.3008 59.7603Z" fill="#1188E7"/>
<path d="M56.3017 51.5809L60.3014 55.7607L43.6001 72.48L37.0602 70.8405L56.3017 51.5809Z" fill="#1188E7"/>
<path d="M66.8412 49.2208C67.8887 50.2886 68.4757 51.7247 68.4757 53.2205C68.4757 54.7163 67.8887 56.1524 66.8412 57.2201L64.4812 59.5803L60.3734 55.7608L56.3738 51.7611L58.7338 49.401C59.7892 48.3095 61.2326 47.6783 62.7506 47.6446C64.2685 47.6108 65.7384 48.1772 66.8412 49.2208Z" fill="#FAD146"/>
</g>
<defs>
<clipPath id="clip0_1_587">
<rect width="101" height="104.441" fill="white" transform="translate(0.000244141)"/>
</clipPath>
</defs>
</svg>
