<svg width="111" height="121" viewBox="0 0 111 121" fill="none" xmlns="http://www.w3.org/2000/svg">
<g clip-path="url(#clip0_1_654)">
<path d="M62.9295 98.9936H47.8551V115.309H62.9295V98.9936Z" fill="black"/>
<path d="M110.565 95.216C110.579 96.1003 110.421 96.9784 110.102 97.7982C109.783 98.618 109.309 99.3627 108.709 99.9882C108.108 100.614 107.393 101.107 106.605 101.439C105.818 101.771 104.974 101.935 104.125 101.921H6.42044C5.57261 101.932 4.73115 101.766 3.946 101.433C3.16085 101.1 2.44794 100.606 1.84932 99.9806C1.25069 99.3555 0.778367 98.6117 0.4607 97.7934C0.143033 96.975 -0.0137067 96.0986 -0.000306525 95.216V24.8887C-0.0110183 24.0079 0.147915 23.1337 0.466785 22.3177C0.785656 21.5018 1.25803 20.7605 1.85638 20.1376C2.45473 19.5147 3.16681 19.0228 3.95062 18.6908C4.73444 18.3589 5.57431 18.1936 6.42044 18.2047H104.125C104.972 18.1908 105.814 18.354 106.6 18.6847C107.386 19.0154 108.101 19.5068 108.701 20.13C109.302 20.7532 109.776 21.4955 110.096 22.3128C110.416 23.1302 110.576 24.0061 110.565 24.8887V95.216Z" fill="#FAD146"/>
<path d="M102.33 3.68109e-05C103.821 3.68109e-05 105.252 0.616761 106.306 1.71454C107.361 2.81232 107.953 4.30121 107.953 5.8537C107.953 7.4062 107.361 8.89512 106.306 9.9929C105.252 11.0907 103.821 11.7074 102.33 11.7074C100.845 11.6809 99.4273 11.0563 98.3751 9.96477C97.3229 8.87326 96.7178 7.39974 96.6871 5.8537C96.6871 5.08324 96.8333 4.32035 97.1172 3.60879C97.401 2.89723 97.817 2.25103 98.3412 1.70719C98.8655 1.16335 99.4876 0.732589 100.172 0.439638C100.857 0.146686 101.59 -0.00269534 102.33 3.68109e-05Z" fill="#FAD146"/>
<path d="M11.2458 107.151C12.2396 107.151 13.211 107.458 14.0374 108.033C14.8637 108.608 15.5079 109.425 15.8882 110.38C16.2685 111.336 16.3678 112.388 16.1739 113.403C15.9801 114.417 15.5017 115.35 14.799 116.081C14.0962 116.813 13.2009 117.311 12.2262 117.513C11.2515 117.715 10.241 117.611 9.32286 117.215C8.4047 116.819 7.6201 116.149 7.06797 115.288C6.51584 114.428 6.22092 113.417 6.22092 112.382C6.21561 111.694 6.34196 111.011 6.5926 110.374C6.84324 109.737 7.2132 109.158 7.68086 108.671C8.14852 108.184 8.7045 107.799 9.31653 107.538C9.92857 107.277 10.5844 107.146 11.2458 107.151Z" fill="#FAD146"/>
<path d="M76.5878 112.382C77.1125 112.343 77.6392 112.416 78.1354 112.598C78.6315 112.78 79.0865 113.066 79.4717 113.439C79.8568 113.812 80.1639 114.264 80.374 114.766C80.584 115.268 80.6923 115.81 80.6923 116.357C80.6923 116.905 80.584 117.447 80.374 117.949C80.1639 118.451 79.8568 118.902 79.4717 119.275C79.0865 119.648 78.6315 119.935 78.1354 120.117C77.6392 120.299 77.1125 120.372 76.5878 120.333H33.9768C33.4522 120.372 32.9254 120.299 32.4293 120.117C31.9331 119.935 31.4781 119.648 31.093 119.275C30.7079 118.902 30.4007 118.451 30.1907 117.949C29.9807 117.447 29.8723 116.905 29.8723 116.357C29.8723 115.81 29.9807 115.268 30.1907 114.766C30.4007 114.264 30.7079 113.812 31.093 113.439C31.4781 113.066 31.9331 112.78 32.4293 112.598C32.9254 112.416 33.4522 112.343 33.9768 112.382H76.5878Z" fill="#FAD146"/>
<path d="M7.63702 26.1547H103.128V86.3522H7.63702V26.1547Z" fill="white"/>
<path d="M55.2726 45.6254C57.3391 45.6254 59.3591 46.2634 61.0773 47.4586C62.7956 48.6538 64.1347 50.3525 64.9255 52.34C65.7164 54.3276 65.9233 56.5146 65.5202 58.6245C65.117 60.7344 64.1219 62.6726 62.6607 64.1937C61.1994 65.7149 59.3377 66.7509 57.3109 67.1706C55.2841 67.5903 53.1834 67.3749 51.2742 66.5516C49.3651 65.7283 47.7331 64.3342 46.5851 62.5455C45.437 60.7567 44.8243 58.6538 44.8243 56.5025C44.8137 55.071 45.0765 53.6516 45.5978 52.327C46.1191 51.0023 46.8884 49.7989 47.8607 48.7866C48.8331 47.7744 49.9891 46.9736 51.2616 46.4309C52.534 45.8882 53.8976 45.6144 55.2726 45.6254ZM59.1009 56.5025C59.1048 55.7134 58.8836 54.9408 58.4654 54.2827C58.0471 53.6245 57.4507 53.1105 56.7516 52.8056C56.0524 52.5008 55.282 52.4189 54.538 52.5703C53.7941 52.7218 53.11 53.0997 52.5726 53.6562C52.0351 54.2128 51.6684 54.9229 51.5191 55.6965C51.3698 56.4702 51.4446 57.2726 51.7338 58.0021C52.023 58.7315 52.5136 59.3552 53.1436 59.7941C53.7736 60.2329 54.5146 60.4672 55.2726 60.4672C56.2845 60.4672 57.2553 60.0502 57.9727 59.3073C58.6901 58.5643 59.0956 57.5559 59.1009 56.5025Z" fill="#FAD146"/>
<path d="M73.7765 43.7366C75.3699 46.2525 76.4615 49.0761 76.9867 52.0397C75.8868 52.1441 74.8653 52.6766 74.126 53.5309C73.3868 54.3851 72.9842 55.4982 72.9988 56.6479C73.0152 57.7884 73.4284 58.884 74.1618 59.7314C74.8952 60.5788 75.8988 61.1206 76.9867 61.2561C76.4687 64.1768 75.3757 66.9543 73.7765 69.4139C72.9551 68.7596 71.9336 68.4381 70.9016 68.5092C69.8697 68.5803 68.8974 69.0392 68.166 69.8006C67.4347 70.5619 66.994 71.5739 66.9256 72.6482C66.8573 73.7226 67.1661 74.7862 67.7946 75.6412C65.4225 77.3909 62.6919 78.5422 59.8187 79.004C59.714 77.8608 59.2013 76.8001 58.3817 76.0314C57.5621 75.2627 56.4953 74.842 55.3922 74.8524C54.3001 74.8744 53.2525 75.3068 52.4426 76.0698C51.6328 76.8328 51.1153 77.8749 50.9856 79.004C48.1742 78.452 45.5006 77.3077 43.1293 75.6412C43.7578 74.7862 44.0668 73.7226 43.9985 72.6482C43.9301 71.5739 43.4892 70.5619 42.7578 69.8006C42.0265 69.0392 41.0545 68.5803 40.0225 68.5092C38.9905 68.4381 37.9688 68.7596 37.1474 69.4139C35.582 66.9356 34.4919 64.1654 33.9371 61.2561C35.0353 61.147 36.0541 60.6131 36.7925 59.7599C37.5309 58.9067 37.935 57.7962 37.9251 56.6479C37.8732 55.5187 37.4478 54.443 36.7209 53.6031C35.9941 52.7632 35.0105 52.2108 33.9371 52.0397C34.5852 49.1148 35.6684 46.3133 37.1474 43.7366C37.9688 44.3909 38.9905 44.7124 40.0225 44.6413C41.0545 44.5701 42.0265 44.1112 42.7578 43.3499C43.4892 42.5885 43.9301 41.5766 43.9985 40.5023C44.0668 39.4279 43.7578 38.3643 43.1293 37.5092C45.4758 35.7992 48.1602 34.6573 50.9856 34.1672C51.0857 35.3087 51.5944 36.3692 52.4108 37.1383C53.2271 37.9073 54.2913 38.3287 55.3922 38.3188C56.4769 38.2648 57.5102 37.8219 58.3169 37.0652C59.1237 36.3085 59.6543 35.2847 59.8187 34.1672C62.5947 34.8081 65.2451 35.9384 67.6551 37.5092C66.9603 38.3694 66.5963 39.4669 66.6331 40.5901C66.6699 41.7133 67.105 42.7825 67.8545 43.5913C68.69 44.2874 69.722 44.6787 70.7919 44.705C71.8618 44.7312 72.9104 44.391 73.7765 43.7366ZM65.1228 56.5026C65.1228 54.4745 64.5451 52.4919 63.4627 50.8056C62.3804 49.1193 60.8419 47.805 59.042 47.0288C57.2422 46.2527 55.2618 46.0496 53.351 46.4453C51.4403 46.841 49.685 47.8176 48.3075 49.2517C46.9299 50.6858 45.9918 52.5129 45.6118 54.5021C45.2317 56.4912 45.4268 58.553 46.1723 60.4268C46.9178 62.3005 48.1804 63.902 49.8002 65.0287C51.4201 66.1555 53.3245 66.7569 55.2727 66.7569C56.5662 66.7569 57.847 66.4917 59.042 65.9764C60.2371 65.461 61.323 64.7057 62.2377 63.7535C63.1524 62.8013 63.8781 61.6709 64.3731 60.4268C64.8681 59.1826 65.1228 57.8492 65.1228 56.5026Z" fill="#FFDD88"/>
<path d="M107.355 113.628C107.836 113.628 108.298 113.827 108.638 114.181C108.978 114.535 109.169 115.016 109.169 115.517C109.169 116.018 108.978 116.498 108.638 116.853C108.298 117.207 107.836 117.406 107.355 117.406C107.128 117.429 106.899 117.403 106.682 117.329C106.465 117.255 106.265 117.136 106.095 116.978C105.924 116.82 105.787 116.627 105.692 116.412C105.596 116.196 105.545 115.962 105.54 115.724C105.518 115.461 105.549 115.195 105.63 114.944C105.71 114.693 105.84 114.463 106.01 114.266C106.18 114.069 106.388 113.911 106.619 113.801C106.85 113.692 107.101 113.633 107.355 113.628Z" fill="white"/>
<path d="M87.2359 105.885C87.5956 105.881 87.9484 105.988 88.2494 106.193C88.5504 106.398 88.7862 106.692 88.9266 107.037C89.067 107.381 89.1058 107.762 89.0381 108.13C88.9703 108.497 88.7991 108.836 88.5461 109.102C88.2932 109.368 87.9698 109.55 87.6173 109.625C87.2648 109.7 86.899 109.663 86.5663 109.521C86.2336 109.379 85.949 109.137 85.7487 108.826C85.5484 108.515 85.4416 108.149 85.4415 107.774C85.4415 107.277 85.6298 106.799 85.9658 106.446C86.3018 106.092 86.7581 105.891 87.2359 105.885Z" fill="white"/>
<path d="M84.823 1.24541C85.1827 1.2413 85.5355 1.34859 85.8365 1.55363C86.1375 1.75868 86.373 2.05223 86.5134 2.39701C86.6538 2.74179 86.6927 3.12223 86.6249 3.49001C86.5572 3.85779 86.3859 4.1963 86.133 4.46255C85.88 4.72881 85.5569 4.91081 85.2044 4.98539C84.8519 5.05998 84.4859 5.02378 84.1532 4.88144C83.8204 4.7391 83.5361 4.49702 83.3358 4.18595C83.1355 3.87488 83.0284 3.50886 83.0284 3.13438C83.0284 2.63697 83.2169 2.15963 83.5529 1.80598C83.8889 1.45232 84.3452 1.25088 84.823 1.24541Z" fill="white"/>
<path d="M57.0871 92.2682C57.3352 92.5111 57.5338 92.8035 57.6708 93.1281C57.8078 93.4527 57.8807 93.8027 57.8848 94.1572C57.902 94.5119 57.8388 94.8658 57.7003 95.1904C57.5617 95.5149 57.3516 95.801 57.0871 96.0254C56.8578 96.2904 56.5782 96.5028 56.2659 96.6493C55.9535 96.7959 55.6154 96.8732 55.2728 96.8764C54.5848 96.8606 53.9292 96.569 53.4426 96.0624C52.956 95.5559 52.6758 94.8734 52.6606 94.1572C52.6391 93.7969 52.7024 93.4365 52.8448 93.1074C52.9873 92.7782 53.2047 92.4902 53.4782 92.2682C53.7091 92.0124 53.9869 91.8072 54.295 91.6646C54.6032 91.522 54.9356 91.445 55.2728 91.4379C55.6185 91.3996 55.9678 91.4561 56.2861 91.6017C56.6044 91.7474 56.8805 91.9771 57.0871 92.2682Z" fill="white"/>
<path d="M29.5504 1.2453C29.9092 1.2453 30.2599 1.35609 30.5583 1.56365C30.8567 1.77121 31.0893 2.06624 31.2267 2.4114C31.364 2.75656 31.3999 3.13637 31.3299 3.50279C31.2599 3.86921 31.0871 4.20577 30.8333 4.46995C30.5796 4.73412 30.2562 4.91404 29.9043 4.98693C29.5523 5.05981 29.1875 5.0224 28.8559 4.87943C28.5244 4.73646 28.2409 4.49435 28.0415 4.18371C27.8421 3.87307 27.7358 3.50786 27.7358 3.13426C27.7358 2.63328 27.9271 2.15283 28.2674 1.79858C28.6077 1.44433 29.0691 1.2453 29.5504 1.2453Z" fill="white"/>
<path d="M25.7219 105.885C26.0816 105.881 26.4345 105.988 26.7355 106.193C27.0365 106.398 27.2722 106.692 27.4126 107.037C27.553 107.381 27.5916 107.762 27.5238 108.13C27.4561 108.497 27.2849 108.836 27.0319 109.102C26.779 109.368 26.4559 109.55 26.1033 109.625C25.7508 109.7 25.385 109.663 25.0523 109.521C24.7196 109.379 24.435 109.137 24.2347 108.826C24.0344 108.515 23.9273 108.149 23.9273 107.774C23.9273 107.277 24.1159 106.799 24.4518 106.446C24.7878 106.092 25.2441 105.891 25.7219 105.885Z" fill="white"/>
<path d="M14.4758 10.462C14.9217 10.5108 15.3344 10.7298 15.6344 11.0767C15.9344 11.4236 16.1005 11.8738 16.1005 12.3406C16.1005 12.8073 15.9344 13.2575 15.6344 13.6044C15.3344 13.9513 14.9217 14.1703 14.4758 14.2191C14.2229 14.2468 13.9673 14.2189 13.7254 14.1371C13.4835 14.0553 13.2609 13.9216 13.0719 13.7444C12.8829 13.5673 12.7318 13.3508 12.6284 13.1089C12.5249 12.8671 12.4714 12.6053 12.4714 12.3406C12.4714 12.0758 12.5249 11.814 12.6284 11.5722C12.7318 11.3303 12.8829 11.1138 13.0719 10.9367C13.2609 10.7596 13.4835 10.6258 13.7254 10.544C13.9673 10.4622 14.2229 10.4343 14.4758 10.462Z" fill="white"/>
<path d="M89.2498 65.2831C89.2688 65.6125 89.403 65.9232 89.6271 66.1565C89.8512 66.3898 90.1497 66.5296 90.4661 66.5493H103.128V63.83H90.4661C90.1499 63.9234 89.8667 64.1104 89.6507 64.3684C89.4347 64.6264 89.2954 64.9442 89.2498 65.2831Z" fill="#1188E7"/>
<path d="M89.2498 58.8066C89.2734 59.1323 89.4097 59.4381 89.6334 59.6671C89.8571 59.8961 90.1529 60.0329 90.4661 60.0521H103.128V57.3328H90.4661C90.1329 57.3985 89.8311 57.5801 89.6101 57.8479C89.389 58.1157 89.262 58.4538 89.2498 58.8066Z" fill="#1188E7"/>
<path d="M89.2494 52.3094C89.2725 52.6373 89.408 52.9456 89.6313 53.178C89.8546 53.4105 90.1507 53.5516 90.4657 53.5756H103.128V50.8564H90.4657C90.1219 50.8881 89.8033 51.0571 89.5765 51.328C89.3498 51.5989 89.2326 51.9506 89.2494 52.3094Z" fill="#1188E7"/>
<path d="M89.2498 45.6256C89.2734 45.9513 89.4097 46.257 89.6334 46.486C89.8571 46.7151 90.1529 46.8519 90.4661 46.8711H103.128V44.1518H90.4661C90.1471 44.2466 89.8618 44.4367 89.6456 44.6987C89.4294 44.9607 89.2917 45.2829 89.2498 45.6256Z" fill="#1188E7"/>
<path d="M89.2498 39.1284C89.2734 39.4541 89.4097 39.7598 89.6334 39.9889C89.8571 40.2179 90.1529 40.3547 90.4661 40.3739H103.128V37.6546H90.4661C90.1495 37.754 89.8669 37.9456 89.6514 38.2067C89.4359 38.4678 89.2965 38.7876 89.2498 39.1284Z" fill="#1188E7"/>
<path d="M21.2952 65.2831C21.2722 64.9608 21.1387 64.6577 20.9191 64.4291C20.6996 64.2006 20.4085 64.0616 20.0989 64.0377H7.43726V66.7569H20.0989C20.413 66.6564 20.6927 66.4641 20.9048 66.2028C21.1169 65.9415 21.2524 65.6223 21.2952 65.2831Z" fill="#1188E7"/>
<path d="M21.2952 58.8067C21.2768 58.4806 21.1452 58.1726 20.9252 57.9397C20.7052 57.7069 20.4117 57.565 20.0989 57.5404H7.43726V60.2597H20.0989C20.4102 60.1607 20.6881 59.9715 20.8999 59.7142C21.1118 59.4569 21.2488 59.1421 21.2952 58.8067Z" fill="#1188E7"/>
<path d="M21.2952 52.3094C21.2722 51.9871 21.1387 51.684 20.9191 51.4555C20.6996 51.2269 20.4085 51.0879 20.0989 51.064H7.43726V53.7833H20.0989C20.4118 53.6805 20.6901 53.4875 20.9019 53.2266C21.1136 52.9658 21.2501 52.6477 21.2952 52.3094Z" fill="#1188E7"/>
<path d="M21.2952 45.6255C21.2768 45.2994 21.1452 44.9914 20.9252 44.7585C20.7052 44.5257 20.4117 44.3838 20.0989 44.3593H7.43726V47.0785H20.0989C20.4391 47.0418 20.7526 46.8706 20.9751 46.6003C21.1977 46.3299 21.3123 45.9811 21.2952 45.6255Z" fill="#1188E7"/>
<path d="M21.2952 39.1283C21.2768 38.8022 21.1452 38.4942 20.9252 38.2614C20.7052 38.0285 20.4117 37.8866 20.0989 37.8621H7.43726V40.6021H20.0989C20.4106 40.4972 20.6878 40.3035 20.8992 40.0431C21.1106 39.7826 21.2478 39.4657 21.2952 39.1283Z" fill="#1188E7"/>
</g>
<defs>
<clipPath id="clip0_1_654">
<rect width="110.565" height="120.333" fill="white"/>
</clipPath>
</defs>
</svg>
