<svg width="111" height="121" viewBox="0 0 104 104" fill="none" xmlns="http://www.w3.org/2000/svg">
<g clip-path="url(#clip0_1_515)">
<path d="M94.91 70.9783H9.10815V80.1228H94.91V70.9783Z" fill="#1188E7"/>
<path d="M94.7103 28.8123V72.3573H9.10815V28.8123C9.10815 26.4063 10.064 24.0988 11.7653 22.3975C13.4666 20.6962 15.774 19.7404 18.18 19.7404H85.6747C88.0744 19.75 90.3728 20.7101 92.0662 22.4103C93.7597 24.1106 94.7103 26.4126 94.7103 28.8123Z" fill="white"/>
<path d="M10.1968 0C11.5712 0 12.9147 0.407566 14.0574 1.17114C15.2002 1.93471 16.0909 3.01999 16.6169 4.28976C17.1428 5.55954 17.2806 6.95679 17.0124 8.30478C16.7443 9.65276 16.0824 10.891 15.1106 11.8628C14.1387 12.8347 12.9005 13.4965 11.5525 13.7646C10.2045 14.0328 8.80723 13.8951 7.53745 13.3692C6.26768 12.8432 5.18235 11.9525 4.41877 10.8097C3.6552 9.66696 3.2478 8.32348 3.2478 6.94909C3.25259 5.10756 3.98615 3.34278 5.28831 2.04062C6.59048 0.738454 8.35525 0.00478945 10.1968 0Z" fill="#FAD146"/>
<path d="M95.9986 0.181299C96.9029 0.181299 97.7868 0.44943 98.5387 0.951832C99.2906 1.45423 99.8766 2.16834 100.223 3.0038C100.569 3.83927 100.659 4.7586 100.483 5.64552C100.306 6.53245 99.871 7.34714 99.2315 7.98658C98.5921 8.62602 97.7774 9.06147 96.8905 9.23789C96.0035 9.41431 95.0843 9.32377 94.2489 8.97771C93.4134 8.63165 92.6992 8.04563 92.1968 7.29373C91.6944 6.54183 91.4263 5.65781 91.4263 4.7535C91.4215 4.15172 91.5364 3.55501 91.7645 2.9981C91.9926 2.44119 92.3292 1.93523 92.7547 1.50969C93.1803 1.08415 93.6862 0.747565 94.2431 0.519501C94.8 0.291437 95.3968 0.176465 95.9986 0.181299Z" fill="#FAD146"/>
<path d="M71.4862 48.2986L70.7604 54.8848V55.0663H64.1743L63.2489 48.4801C64.385 49.4143 65.806 49.9328 67.2768 49.9497C68.809 49.8135 70.27 49.2405 71.4862 48.2986Z" fill="#1188E7"/>
<path d="M43.4907 42.4383H38.7371V55.0663H43.4907V42.4383Z" fill="#1188E7"/>
<path d="M38.7368 42.4383H33.9832V55.0663H38.7368V42.4383Z" fill="#1188E7"/>
<path d="M61.5982 95.1278H43.3093V103.184H61.5982V95.1278Z" fill="#1188E7"/>
<path d="M61.6161 95.1276H100.571C99.1539 97.5525 97.1352 99.571 94.7103 100.988C92.2862 102.45 89.5036 103.21 86.6727 103.183H61.6161V95.1276Z" fill="#FCC62B"/>
<path d="M43.3089 95.1276V103.202H17.1637C14.3665 103.193 11.6217 102.443 9.20895 101.027C6.79619 99.6123 4.80185 97.5828 3.42896 95.1457L43.3089 95.1276Z" fill="#FCC62B"/>
<path d="M94.7105 79.0161L100.571 95.1278H61.5981H43.3092H3.2478L9.10824 79.0161H94.7105Z" fill="#FAD146"/>
<path d="M77.5281 56.1549C77.8864 56.5172 78.1676 56.9484 78.3547 57.4224C78.5418 57.8964 78.6308 58.4033 78.6167 58.9127C78.6072 59.9763 78.1792 60.9934 77.4254 61.7439C76.6715 62.4943 75.6525 62.9177 74.5889 62.9224H31.6064C31.0978 62.9536 30.5885 62.8722 30.1149 62.684C29.6414 62.4959 29.2152 62.2056 28.8667 61.8339C28.5065 61.4758 28.2228 61.0483 28.0326 60.5774C27.8423 60.1065 27.7496 59.6019 27.7599 59.0941C27.7694 58.0288 28.1968 57.0098 28.9502 56.2565C29.7035 55.5031 30.7225 55.0757 31.7878 55.0662H75.1514C75.6012 55.0742 76.0445 55.175 76.4535 55.3623C76.8625 55.5497 77.2283 55.8195 77.5281 56.1549Z" fill="#FAD146"/>
<path d="M38.7368 31.0984L43.4905 42.4383H38.7368H33.9832L38.7368 31.0984Z" fill="#A5ABAF"/>
<path d="M73.5004 43.5451C73.5174 44.4078 73.3459 45.2639 72.9981 46.0535C72.6503 46.8432 72.1345 47.5475 71.4865 48.1174C70.3673 49.1018 68.9474 49.6774 67.4586 49.7503C65.9844 49.771 64.5527 49.2551 63.4306 48.2987C62.7606 47.7365 62.2182 47.0379 61.8397 46.2495C61.4611 45.4611 61.2551 44.6009 61.2352 43.7265C61.2352 40.6058 67.277 35.6707 67.277 30.9171C69.291 34.2555 73.5004 40.4244 73.5004 43.5451Z" fill="#A5ABAF"/>
<path d="M103.873 50.3127C103.999 50.6218 104.031 50.9615 103.965 51.2887C103.898 51.616 103.735 51.916 103.498 52.1509C103.26 52.3857 102.959 52.5448 102.631 52.6081C102.303 52.6714 101.964 52.6359 101.656 52.5062C101.348 52.3765 101.086 52.1584 100.902 51.8795C100.718 51.6006 100.622 51.2735 100.624 50.9395C100.626 50.6056 100.728 50.2798 100.915 50.0035C101.103 49.7272 101.368 49.5128 101.678 49.3874C101.882 49.3019 102.102 49.258 102.324 49.2584C102.546 49.2587 102.765 49.3032 102.97 49.3894C103.174 49.4755 103.359 49.6015 103.514 49.7601C103.669 49.9186 103.791 50.1065 103.873 50.3127Z" fill="white"/>
<path d="M83.189 8.05569C83.3101 8.36139 83.3382 8.69606 83.2699 9.01769C83.2015 9.33933 83.0398 9.6336 82.8048 9.86359C82.5697 10.0936 82.272 10.249 81.9489 10.3104C81.6259 10.3718 81.2918 10.3364 80.9888 10.2087C80.6858 10.081 80.4274 9.86666 80.2458 9.59255C80.0641 9.31844 79.9675 8.9968 79.968 8.66797C79.9685 8.33915 80.0662 8.01778 80.2486 7.74423C80.4311 7.47068 80.6903 7.25711 80.9937 7.13034C81.1973 7.03677 81.4181 6.98662 81.6422 6.98305C81.8663 6.97948 82.0886 7.0226 82.2951 7.10963C82.5016 7.19667 82.6878 7.32571 82.8417 7.48859C82.9956 7.65146 83.1138 7.8446 83.189 8.05569Z" fill="white"/>
<path d="M56.8443 3.41103C56.9654 3.71674 56.9937 4.05141 56.9254 4.37304C56.857 4.69467 56.695 4.98895 56.46 5.21893C56.225 5.44891 55.9273 5.60437 55.6042 5.66577C55.2812 5.72717 54.9471 5.69177 54.6441 5.56406C54.3411 5.43634 54.0827 5.22201 53.901 4.94789C53.7194 4.67378 53.6228 4.35214 53.6233 4.02332C53.6238 3.6945 53.7214 3.37312 53.9039 3.09958C54.0864 2.82603 54.3456 2.61246 54.649 2.48569C54.8526 2.39212 55.0734 2.34197 55.2975 2.3384C55.5215 2.33483 55.7439 2.37794 55.9504 2.46498C56.1569 2.55201 56.3431 2.68106 56.497 2.84393C56.6509 3.00681 56.7691 3.19994 56.8443 3.41103Z" fill="white"/>
<path d="M35.2716 10.4326C35.398 10.7417 35.4296 11.0814 35.3629 11.4086C35.2961 11.7358 35.1338 12.0358 34.8964 12.2707C34.659 12.5056 34.3572 12.6648 34.0293 12.728C33.7014 12.7913 33.3621 12.7558 33.0544 12.6261C32.7466 12.4964 32.4841 12.2782 32.3004 11.9993C32.1167 11.7204 32.0199 11.3933 32.0223 11.0594C32.0246 10.7254 32.1261 10.3996 32.3137 10.1233C32.5013 9.84704 32.7665 9.63262 33.0761 9.50723C33.2777 9.40129 33.5003 9.34137 33.7279 9.33171C33.9555 9.32205 34.1824 9.36295 34.3923 9.45142C34.6022 9.53989 34.79 9.67373 34.942 9.84339C35.0941 10.013 35.2066 10.2143 35.2716 10.4326Z" fill="white"/>
<path d="M3.24759 35.4891C3.34444 35.6912 3.39756 35.9113 3.40374 36.1353C3.40992 36.3593 3.36904 36.5821 3.28347 36.7891C3.19791 36.9962 3.06965 37.1829 2.90718 37.3372C2.7447 37.4914 2.55162 37.6098 2.3404 37.6846C2.13282 37.795 1.90429 37.8609 1.66976 37.8779C1.43523 37.8949 1.19987 37.8627 0.978516 37.7833C0.757161 37.704 0.55483 37.5792 0.384503 37.4171C0.214176 37.255 0.0795493 37.0591 -0.0106198 36.8419C-0.100789 36.6248 -0.144489 36.3912 -0.139079 36.1561C-0.133669 35.921 -0.0792327 35.6896 0.0208306 35.4768C0.120894 35.2641 0.264263 35.0745 0.441867 34.9204C0.619471 34.7663 0.827277 34.651 1.05205 34.5819C1.25559 34.4959 1.47426 34.4512 1.69523 34.4503C1.9162 34.4494 2.13507 34.4924 2.3393 34.5768C2.54352 34.6612 2.72914 34.7853 2.88503 34.9419C3.04092 35.0985 3.16414 35.2845 3.24759 35.4891Z" fill="white"/>
<path d="M20.448 85.9832H18.0711C17.8042 85.9488 17.559 85.8184 17.3814 85.6163C17.2037 85.4143 17.1058 85.1545 17.1058 84.8854C17.1058 84.6164 17.2037 84.3566 17.3814 84.1545C17.559 83.9525 17.8042 83.8221 18.0711 83.7877H20.448C20.733 83.8045 21.0021 83.9241 21.2057 84.1243C21.4092 84.3245 21.5333 84.5917 21.5547 84.8764C21.5598 85.0231 21.5346 85.1692 21.4808 85.3058C21.4269 85.4424 21.3456 85.5665 21.2418 85.6703C21.138 85.7741 21.014 85.8554 20.8774 85.9092C20.7409 85.963 20.5947 85.9882 20.448 85.9832Z" fill="white"/>
<path d="M29.5924 85.9832H27.2154C26.9486 85.9488 26.7034 85.8184 26.5257 85.6163C26.3481 85.4143 26.25 85.1545 26.25 84.8854C26.25 84.6164 26.3481 84.3566 26.5257 84.1545C26.7034 83.9525 26.9486 83.8221 27.2154 83.7877H29.5924C29.8774 83.8045 30.1465 83.9241 30.3501 84.1243C30.5536 84.3245 30.6776 84.5917 30.6991 84.8764C30.7042 85.0231 30.679 85.1692 30.6251 85.3058C30.5713 85.4424 30.49 85.5665 30.3862 85.6703C30.2824 85.7741 30.1584 85.8554 30.0218 85.9092C29.8853 85.963 29.7391 85.9882 29.5924 85.9832Z" fill="white"/>
<path d="M38.7367 85.9832H36.36C36.0931 85.9488 35.8479 85.8184 35.6703 85.6163C35.4926 85.4143 35.3945 85.1545 35.3945 84.8854C35.3945 84.6164 35.4926 84.3566 35.6703 84.1545C35.8479 83.9525 36.0931 83.8221 36.36 83.7877H38.7367C39.0217 83.8045 39.2911 83.9241 39.4946 84.1243C39.6981 84.3245 39.822 84.5917 39.8434 84.8764C39.8513 85.0238 39.8281 85.1712 39.7752 85.309C39.7224 85.4469 39.6411 85.572 39.5367 85.6764C39.4323 85.7808 39.3073 85.862 39.1695 85.9149C39.0316 85.9677 38.8841 85.991 38.7367 85.9832Z" fill="white"/>
<path d="M47.8815 85.9832H45.5953C45.3285 85.9488 45.0833 85.8184 44.9056 85.6163C44.728 85.4143 44.6299 85.1545 44.6299 84.8854C44.6299 84.6164 44.728 84.3566 44.9056 84.1545C45.0833 83.9525 45.3285 83.8221 45.5953 83.7877H47.9723C48.2573 83.8045 48.5264 83.9241 48.7299 84.1243C48.9335 84.3245 49.0575 84.5917 49.079 84.8764C49.0886 85.0322 49.0634 85.1881 49.0052 85.333C48.9471 85.4779 48.8574 85.608 48.7428 85.7139C48.6282 85.8199 48.4913 85.899 48.3424 85.9456C48.1934 85.9921 48.036 86.005 47.8815 85.9832Z" fill="white"/>
<path d="M57.044 85.9832H54.6671C54.4003 85.9488 54.1551 85.8184 53.9774 85.6163C53.7997 85.4143 53.7017 85.1545 53.7017 84.8854C53.7017 84.6164 53.7997 84.3566 53.9774 84.1545C54.1551 83.9525 54.4003 83.8221 54.6671 83.7877H57.062C57.3437 83.8087 57.6088 83.9301 57.8086 84.1299C58.0084 84.3297 58.1298 84.5946 58.1508 84.8764C58.1586 85.0238 58.1352 85.1712 58.0823 85.309C58.0295 85.4469 57.9484 85.572 57.844 85.6764C57.7396 85.7808 57.6144 85.862 57.4766 85.9149C57.3388 85.9677 57.1914 85.991 57.044 85.9832Z" fill="white"/>
<path d="M66.1881 85.9832H63.7387C63.5828 86.0033 63.4243 85.9899 63.2739 85.9439C63.1234 85.898 62.9844 85.8205 62.8663 85.7166C62.7482 85.6127 62.6536 85.4849 62.5888 85.3416C62.524 85.1983 62.4905 85.0428 62.4905 84.8855C62.4905 84.7282 62.524 84.5727 62.5888 84.4294C62.6536 84.2861 62.7482 84.1582 62.8663 84.0544C62.9844 83.9505 63.1234 83.873 63.2739 83.827C63.4243 83.781 63.5828 83.7677 63.7387 83.7878H66.1157C66.3975 83.8087 66.6623 83.9302 66.8621 84.1299C67.0619 84.3297 67.1833 84.5946 67.2043 84.8764C67.2116 85.0161 67.1909 85.1559 67.1436 85.2875C67.0962 85.4192 67.0231 85.54 66.9285 85.6431C66.8339 85.7461 66.7197 85.8293 66.5925 85.8877C66.4654 85.9461 66.3279 85.9786 66.1881 85.9832Z" fill="white"/>
<path d="M75.3326 85.9832H72.9557C72.7997 86.0033 72.6412 85.9899 72.4908 85.9439C72.3404 85.898 72.2016 85.8205 72.0835 85.7166C71.9654 85.6127 71.8708 85.4849 71.806 85.3416C71.7412 85.1983 71.7076 85.0428 71.7076 84.8855C71.7076 84.7282 71.7412 84.5727 71.806 84.4294C71.8708 84.2861 71.9654 84.1582 72.0835 84.0544C72.2016 83.9505 72.3404 83.873 72.4908 83.827C72.6412 83.781 72.7997 83.7677 72.9557 83.7878H75.3326C75.6144 83.8087 75.8792 83.9302 76.079 84.1299C76.2788 84.3297 76.4003 84.5946 76.4212 84.8764C76.4289 85.0222 76.4061 85.168 76.3543 85.3046C76.3026 85.4411 76.223 85.5654 76.1207 85.6695C76.0183 85.7736 75.8953 85.8552 75.7596 85.9092C75.624 85.9632 75.4785 85.9884 75.3326 85.9832Z" fill="white"/>
<path d="M84.4774 85.9832H82.1004C81.9444 86.0033 81.786 85.9899 81.6356 85.9439C81.4851 85.898 81.3461 85.8205 81.228 85.7166C81.1099 85.6127 81.0153 85.4849 80.9505 85.3416C80.8857 85.1983 80.8522 85.0428 80.8522 84.8855C80.8522 84.7282 80.8857 84.5727 80.9505 84.4294C81.0153 84.2861 81.1099 84.1582 81.228 84.0544C81.3461 83.9505 81.4851 83.873 81.6356 83.827C81.786 83.781 81.9444 83.7677 82.1004 83.7878H84.4774C84.7592 83.8087 85.024 83.9302 85.2238 84.1299C85.4236 84.3297 85.545 84.5946 85.566 84.8764C85.5736 85.0222 85.5508 85.168 85.4991 85.3046C85.4473 85.4411 85.3676 85.5654 85.2652 85.6695C85.1628 85.7736 85.0398 85.8552 84.9042 85.9092C84.7685 85.9632 84.6233 85.9884 84.4774 85.9832Z" fill="white"/>
<path d="M20.448 90.5011H18.0711C17.8042 90.4667 17.559 90.3364 17.3814 90.1343C17.2037 89.9323 17.1058 89.6724 17.1058 89.4034C17.1058 89.1343 17.2037 88.8745 17.3814 88.6725C17.559 88.4705 17.8042 88.3401 18.0711 88.3057H20.448C20.733 88.3225 21.0021 88.442 21.2057 88.6422C21.4092 88.8424 21.5333 89.1097 21.5547 89.3944C21.5598 89.5411 21.5346 89.6872 21.4808 89.8238C21.4269 89.9604 21.3456 90.0844 21.2418 90.1882C21.138 90.292 21.014 90.3734 20.8774 90.4272C20.7409 90.481 20.5947 90.5062 20.448 90.5011Z" fill="white"/>
<path d="M29.5924 90.5011H27.2154C26.9486 90.4667 26.7034 90.3364 26.5257 90.1343C26.3481 89.9323 26.25 89.6724 26.25 89.4034C26.25 89.1343 26.3481 88.8745 26.5257 88.6725C26.7034 88.4705 26.9486 88.3401 27.2154 88.3057H29.5924C29.8774 88.3225 30.1465 88.442 30.3501 88.6422C30.5536 88.8424 30.6776 89.1097 30.6991 89.3944C30.7042 89.5411 30.679 89.6872 30.6251 89.8238C30.5713 89.9604 30.49 90.0844 30.3862 90.1882C30.2824 90.292 30.1584 90.3734 30.0218 90.4272C29.8853 90.481 29.7391 90.5062 29.5924 90.5011Z" fill="white"/>
<path d="M57.0441 90.5011H36.5234C36.2566 90.4667 36.0114 90.3364 35.8337 90.1343C35.6561 89.9323 35.558 89.6724 35.558 89.4034C35.558 89.1343 35.6561 88.8745 35.8337 88.6725C36.0114 88.4705 36.2566 88.3401 36.5234 88.3057H57.2073C57.4891 88.3267 57.7539 88.4481 57.9537 88.6479C58.1535 88.8477 58.275 89.1126 58.2959 89.3944C58.24 89.6918 58.0866 89.9621 57.8598 90.1625C57.6331 90.363 57.3461 90.4821 57.0441 90.5011Z" fill="white"/>
<path d="M66.1881 90.5011H63.7387C63.5828 90.5212 63.4243 90.5078 63.2739 90.4618C63.1234 90.4159 62.9844 90.3383 62.8663 90.2345C62.7482 90.1306 62.6536 90.0028 62.5888 89.8594C62.524 89.7161 62.4905 89.5606 62.4905 89.4034C62.4905 89.2461 62.524 89.0906 62.5888 88.9473C62.6536 88.804 62.7482 88.6762 62.8663 88.5723C62.9844 88.4684 63.1234 88.3909 63.2739 88.345C63.4243 88.299 63.5828 88.2856 63.7387 88.3057H66.1157C66.3975 88.3267 66.6623 88.448 66.8621 88.6478C67.0619 88.8476 67.1833 89.1126 67.2043 89.3943C67.2116 89.534 67.1909 89.6738 67.1436 89.8054C67.0962 89.937 67.0231 90.0579 66.9285 90.161C66.8339 90.264 66.7197 90.3472 66.5925 90.4056C66.4654 90.464 66.3279 90.4964 66.1881 90.5011Z" fill="white"/>
<path d="M75.3326 90.5011H72.9557C72.7997 90.5212 72.6412 90.5078 72.4908 90.4618C72.3404 90.4159 72.2016 90.3383 72.0835 90.2345C71.9654 90.1306 71.8708 90.0028 71.806 89.8594C71.7412 89.7161 71.7076 89.5606 71.7076 89.4034C71.7076 89.2461 71.7412 89.0906 71.806 88.9473C71.8708 88.804 71.9654 88.6762 72.0835 88.5723C72.2016 88.4684 72.3404 88.3909 72.4908 88.345C72.6412 88.299 72.7997 88.2856 72.9557 88.3057H75.3326C75.6144 88.3267 75.8792 88.448 76.079 88.6478C76.2788 88.8476 76.4003 89.1126 76.4212 89.3943C76.4289 89.5402 76.4061 89.6859 76.3543 89.8225C76.3026 89.959 76.223 90.0833 76.1207 90.1874C76.0183 90.2915 75.8953 90.3731 75.7596 90.4271C75.624 90.4811 75.4785 90.5063 75.3326 90.5011Z" fill="white"/>
<path d="M84.4774 90.5011H82.1004C81.9444 90.5212 81.786 90.5078 81.6356 90.4618C81.4851 90.4159 81.3461 90.3383 81.228 90.2345C81.1099 90.1306 81.0153 90.0028 80.9505 89.8594C80.8857 89.7161 80.8522 89.5606 80.8522 89.4034C80.8522 89.2461 80.8857 89.0906 80.9505 88.9473C81.0153 88.804 81.1099 88.6762 81.228 88.5723C81.3461 88.4684 81.4851 88.3909 81.6356 88.345C81.786 88.299 81.9444 88.2856 82.1004 88.3057H84.4774C84.7592 88.3267 85.024 88.448 85.2238 88.6478C85.4236 88.8476 85.545 89.1126 85.566 89.3943C85.5736 89.5402 85.5508 89.6859 85.4991 89.8225C85.4473 89.959 85.3676 90.0833 85.2652 90.1874C85.1628 90.2915 85.0398 90.3731 84.9042 90.4271C84.7685 90.4811 84.6233 90.5063 84.4774 90.5011Z" fill="white"/>
<path d="M56.663 50.4941V55.0664H48.6254V31.0984H56.663V36.7774V43.5451V50.4941Z" fill="#FAD146"/>
<path d="M52.0905 50.5848C52.1119 50.8695 52.236 51.1367 52.4395 51.3369C52.643 51.5371 52.9122 51.6567 53.1972 51.6735H56.6627V49.4781H53.1972C53.0469 49.4569 52.894 49.471 52.75 49.5191C52.6061 49.5672 52.4753 49.6481 52.368 49.7554C52.2607 49.8627 52.1798 49.9936 52.1317 50.1375C52.0835 50.2814 52.0693 50.4345 52.0905 50.5848Z" fill="#F9E4AA"/>
<path d="M52.0903 43.5449C52.1118 43.8296 52.2359 44.0968 52.4394 44.297C52.6429 44.4972 52.9121 44.6168 53.1971 44.6336H56.6626V42.4382H53.1971C53.0497 42.4304 52.9024 42.4536 52.7645 42.5064C52.6267 42.5593 52.5015 42.6405 52.3971 42.7449C52.2927 42.8493 52.2116 42.9744 52.1588 43.1123C52.1059 43.2501 52.0825 43.3975 52.0903 43.5449Z" fill="#F9E4AA"/>
<path d="M52.0905 36.7773C52.1119 37.062 52.236 37.3292 52.4395 37.5294C52.643 37.7296 52.9122 37.8491 53.1972 37.8659H56.6627V35.6705H53.1972C53.0469 35.6494 52.894 35.6634 52.75 35.7115C52.6061 35.7597 52.4753 35.8406 52.368 35.9479C52.2607 36.0552 52.1798 36.186 52.1317 36.3299C52.0835 36.4738 52.0693 36.627 52.0905 36.7773Z" fill="#F9E4AA"/>
</g>
<defs>
<clipPath id="clip0_1_515">
<rect width="104" height="103.165" fill="white"/>
</clipPath>
</defs>
</svg>
