<svg width="111" height="121" viewBox="0 0 92 101" fill="none" xmlns="http://www.w3.org/2000/svg">
<g clip-path="url(#clip0_1_610)">
<path d="M63.7113 4.3881e-05H25.8633C23.6473 0.0227736 21.5283 0.949255 19.9613 2.58055C18.3943 4.21186 17.5043 6.41786 17.4824 8.72476V92.1155C17.5043 94.4224 18.3943 96.6284 19.9613 98.2597C21.5283 99.891 23.6473 100.818 25.8633 100.84H63.7113C65.926 100.813 68.0425 99.8851 69.6086 98.2548C71.1747 96.6244 72.0661 94.421 72.0922 92.1155V8.79452C72.1171 7.63841 71.9179 6.48898 71.5064 5.41486C71.0949 4.34074 70.4796 3.36401 69.6972 2.54307C68.9149 1.72212 67.9815 1.07376 66.953 0.636824C65.9245 0.199887 64.8221 -0.0166662 63.7113 4.3881e-05Z" fill="#FAD146"/>
<path d="M65.9071 11.3246V89.847C65.9093 90.4709 65.7929 91.0891 65.5646 91.666C65.3363 92.2429 65.0005 92.767 64.5767 93.2082C64.1529 93.6494 63.6495 93.999 63.0954 94.2367C62.5412 94.4744 61.9473 94.5955 61.348 94.5932H28.2268C27.6275 94.5955 27.0336 94.4744 26.4795 94.2367C25.9253 93.999 25.4219 93.6494 24.9981 93.2082C24.5743 92.767 24.2385 92.2429 24.0102 91.666C23.7819 91.0891 23.6655 90.4709 23.6677 89.847V11.3246C23.6264 10.7196 23.7048 10.1122 23.8981 9.54006C24.0914 8.9679 24.3955 8.44313 24.7914 7.99822C25.1874 7.55331 25.6667 7.19771 26.2 6.95348C26.7332 6.70924 27.3091 6.58157 27.8917 6.57832H36.2725V6.92733C36.2658 7.29901 36.3308 7.66829 36.4638 8.01329C36.5969 8.35829 36.7951 8.67197 37.0468 8.93565C37.2985 9.19933 37.5985 9.40766 37.9291 9.54826C38.2596 9.68886 38.6141 9.75887 38.9711 9.75413H50.3021C50.6585 9.75648 51.0118 9.68481 51.3413 9.54336C51.6708 9.40191 51.9701 9.19352 52.2213 8.93033C52.4726 8.66713 52.6708 8.35444 52.8047 8.01052C52.9385 7.6666 53.0051 7.29837 53.0007 6.92733V6.57832H61.2809C61.8858 6.56669 62.487 6.68102 63.0489 6.91455C63.6108 7.14808 64.1223 7.49613 64.5532 7.93826C64.9842 8.38038 65.326 8.90764 65.5585 9.48915C65.791 10.0707 65.9095 10.6947 65.9071 11.3246Z" fill="white"/>
<path d="M60.6774 53.8314V77.0566C60.6841 78.0531 60.5007 79.0409 60.1374 79.9629C59.7742 80.8848 59.2386 81.7225 58.5617 82.4271C57.8849 83.1317 57.0802 83.6893 56.1946 84.0674C55.309 84.4455 54.3601 84.6366 53.4029 84.6297H36.1718C35.2146 84.6366 34.2657 84.4455 33.3801 84.0674C32.4945 83.6893 31.6898 83.1317 31.0129 82.4271C30.3361 81.7225 29.8007 80.8848 29.4374 79.9629C29.0742 79.0409 28.8906 78.0531 28.8973 77.0566V53.8314H60.6774Z" fill="#1188E7"/>
<path d="M85.0491 5.28713C86.3188 5.28713 87.5599 5.6791 88.6156 6.41345C89.6714 7.14781 90.4942 8.19155 90.9801 9.41273C91.466 10.6339 91.5931 11.9776 91.3454 13.274C91.0977 14.5704 90.4864 15.7613 89.5886 16.6959C88.6908 17.6306 87.5468 18.2671 86.3015 18.525C85.0562 18.7828 83.7654 18.6505 82.5923 18.1446C81.4193 17.6388 80.4166 16.7822 79.7112 15.6832C79.0058 14.5842 78.6294 13.292 78.6294 11.9702C78.6272 11.092 78.7917 10.2219 79.1135 9.41002C79.4354 8.59814 79.9081 7.86048 80.5047 7.23944C81.1012 6.61839 81.8098 6.1262 82.5897 5.79116C83.3695 5.45611 84.2054 5.28483 85.0491 5.28713Z" fill="#FAD146"/>
<path d="M4.22412 63.6728C5.05954 63.6728 5.87617 63.9307 6.5708 64.4139C7.26542 64.897 7.80675 65.5838 8.12645 66.3873C8.44615 67.1908 8.52985 68.0749 8.36687 68.9279C8.20389 69.7809 7.80155 70.5644 7.21082 71.1794C6.62009 71.7944 5.86745 72.2132 5.04809 72.3828C4.22872 72.5525 3.37952 72.4654 2.60769 72.1326C1.83587 71.7998 1.17611 71.2362 0.711976 70.5131C0.247842 69.7899 0.000135182 68.9397 0.000135182 68.07C-0.00433043 67.4913 0.101884 66.9174 0.312576 66.3818C0.523268 65.8462 0.834267 65.3596 1.22739 64.9504C1.62051 64.5411 2.08788 64.2174 2.60237 63.9981C3.11686 63.7787 3.66818 63.6682 4.22412 63.6728Z" fill="#FAD146"/>
<path d="M42.2397 41.6866H37.8481V53.8314H42.2397V41.6866Z" fill="#1188E7"/>
<path d="M37.8479 41.6866H33.4563V53.8314H37.8479V41.6866Z" fill="#1188E7"/>
<path d="M37.8479 30.7808L42.2394 41.6867H37.8479H33.4563L37.8479 30.7808Z" fill="#A5ABAF"/>
<path d="M49.1789 59.2931H29.0648V75.8351H49.1789V59.2931Z" fill="#43A3F9"/>
<path d="M85.5185 63.673C85.8202 63.673 86.115 63.7661 86.3658 63.9406C86.6166 64.1151 86.8122 64.3631 86.9277 64.6533C87.0431 64.9434 87.0733 65.2627 87.0144 65.5707C86.9556 65.8787 86.8103 66.1616 86.597 66.3837C86.3837 66.6058 86.1119 66.757 85.816 66.8183C85.5201 66.8796 85.2135 66.8481 84.9348 66.7279C84.656 66.6078 84.4177 66.4042 84.2501 66.1431C84.0825 65.8819 83.9931 65.575 83.9931 65.2609C83.9909 65.0517 84.0288 64.8442 84.1046 64.6505C84.1805 64.4568 84.2928 64.2808 84.4349 64.1329C84.577 63.985 84.746 63.8681 84.9321 63.7891C85.1182 63.7101 85.3176 63.6707 85.5185 63.673Z" fill="white"/>
<path d="M81.2946 34.131C81.5963 34.131 81.8913 34.2241 82.1421 34.3985C82.393 34.573 82.5883 34.821 82.7038 35.1112C82.8192 35.4013 82.8494 35.7206 82.7905 36.0286C82.7317 36.3366 82.5865 36.6196 82.3731 36.8417C82.1598 37.0637 81.888 37.215 81.5921 37.2763C81.2963 37.3375 80.9896 37.3061 80.7109 37.1859C80.4322 37.0657 80.1941 36.8622 80.0265 36.601C79.8589 36.3399 79.7693 36.0329 79.7693 35.7189C79.767 35.5097 79.8049 35.3021 79.8808 35.1084C79.9566 34.9147 80.0689 34.7388 80.211 34.5908C80.3531 34.4429 80.5221 34.326 80.7082 34.247C80.8943 34.1681 81.0937 34.1286 81.2946 34.131Z" fill="white"/>
<path d="M81.2946 89.0269C81.597 89.0269 81.8926 89.1205 82.1438 89.2957C82.395 89.471 82.5905 89.72 82.7054 90.0112C82.8204 90.3024 82.8495 90.6225 82.7893 90.931C82.7291 91.2395 82.5822 91.5224 82.3672 91.7437C82.1522 91.9651 81.8787 92.1149 81.5817 92.1742C81.2847 92.2335 80.9776 92.1996 80.6992 92.0767C80.4208 91.9539 80.1838 91.7476 80.0183 91.4842C79.8527 91.2208 79.7659 90.9121 79.7693 90.5973C79.7692 90.3896 79.8088 90.1839 79.8857 89.9923C79.9625 89.8006 80.0753 89.6267 80.2171 89.4806C80.359 89.3346 80.5271 89.2192 80.7121 89.1414C80.8971 89.0635 81.0951 89.0246 81.2946 89.0269Z" fill="white"/>
<path d="M10.9794 48.3872C11.2825 48.3838 11.5796 48.4744 11.833 48.6476C12.0864 48.8207 12.2845 49.0685 12.402 49.3594C12.5196 49.6503 12.551 49.971 12.4927 50.2806C12.4344 50.5902 12.2888 50.8748 12.0745 51.0979C11.8601 51.321 11.5868 51.4726 11.2894 51.5333C10.9919 51.594 10.684 51.5611 10.4046 51.4388C10.1252 51.3164 9.88715 51.1102 9.72083 50.8464C9.55451 50.5826 9.46748 50.2732 9.47079 49.9577C9.47079 49.5412 9.62964 49.1417 9.91255 48.8472C10.1955 48.5527 10.5793 48.3872 10.9794 48.3872Z" fill="white"/>
<path d="M7.94503 89.027C8.24742 89.027 8.54298 89.1206 8.79416 89.2959C9.04535 89.4711 9.24088 89.7202 9.35582 90.0114C9.47076 90.3025 9.49994 90.6227 9.43971 90.9312C9.37949 91.2397 9.2326 91.5225 9.0176 91.7439C8.8026 91.9653 8.52908 92.1151 8.2321 92.1744C7.93512 92.2337 7.62802 92.1997 7.34961 92.0769C7.07121 91.954 6.83424 91.7478 6.66867 91.4843C6.5031 91.2209 6.41633 90.9122 6.41966 90.5974C6.2688 89.725 6.92257 89.027 7.94503 89.027Z" fill="white"/>
<path d="M3.72139 9.8588C4.02378 9.85882 4.31933 9.9524 4.57052 10.1277C4.82171 10.3029 5.01724 10.552 5.13218 10.8432C5.24712 11.1343 5.27629 11.4545 5.21607 11.763C5.15584 12.0715 5.00896 12.3543 4.79396 12.5757C4.57896 12.797 4.30564 12.9469 4.00866 13.0062C3.71168 13.0655 3.40438 13.0315 3.12597 12.9087C2.84756 12.7858 2.6106 12.5796 2.44503 12.3161C2.27946 12.0527 2.19269 11.744 2.19601 11.4292C2.196 11.2215 2.23558 11.0159 2.31244 10.8242C2.3893 10.6325 2.50205 10.4586 2.64391 10.3126C2.78577 10.1665 2.9541 10.0512 3.13907 9.97329C3.32403 9.8954 3.52188 9.85649 3.72139 9.8588Z" fill="white"/>
<path d="M55.4309 49.4343V53.8315H46.983V30.7808H55.4309V36.2425V42.7511V49.4343Z" fill="#FAD146"/>
<path d="M51.2073 49.4342C51.2227 49.7083 51.3331 49.9672 51.5181 50.163C51.703 50.3587 51.9499 50.478 52.2129 50.4986H55.431V48.3872H52.2129C52.0796 48.3823 51.9467 48.4061 51.8225 48.4569C51.6984 48.5078 51.5856 48.5848 51.4913 48.683C51.3969 48.7812 51.3231 48.8986 51.2742 49.0278C51.2253 49.157 51.2026 49.2954 51.2073 49.4342Z" fill="#F9E4AA"/>
<path d="M51.2072 42.7336C51.2226 43.0077 51.333 43.2666 51.518 43.4624C51.7029 43.6581 51.9498 43.7774 52.2128 43.798H55.4309V41.6866H52.2128C51.9525 41.7068 51.7076 41.8236 51.5231 42.0157C51.3385 42.2079 51.2265 42.4626 51.2072 42.7336Z" fill="#F9E4AA"/>
<path d="M51.2073 36.2424C51.2227 36.5165 51.3331 36.7754 51.5181 36.9712C51.703 37.1669 51.9499 37.2862 52.2129 37.3069H55.431V35.1954H52.2129C52.0796 35.1906 51.9467 35.2143 51.8225 35.2652C51.6984 35.3161 51.5856 35.3931 51.4913 35.4913C51.3969 35.5895 51.3231 35.7068 51.2742 35.8361C51.2253 35.9653 51.2026 36.1036 51.2073 36.2424Z" fill="#F9E4AA"/>
</g>
<defs>
<clipPath id="clip0_1_610">
<rect width="91.4184" height="100.98" fill="white"/>
</clipPath>
</defs>
</svg>
