<svg width="111" height="121" viewBox="0 0 106 111" fill="none" xmlns="http://www.w3.org/2000/svg">
<g clip-path="url(#clip0_1_561)">
<path d="M60.3311 88.2793H45.8792V108.906H60.3311V88.2793Z" fill="black"/>
<path d="M99.8444 16.7651H6.17444C5.36002 16.7522 4.5513 16.9031 3.79634 17.2088C3.04137 17.5145 2.35565 17.9689 1.7797 18.5448C1.20374 19.1208 0.749478 19.8066 0.443747 20.5616C0.138016 21.3165 -0.0130007 22.1253 -9.14734e-05 22.9397V87.7058C-0.010418 88.5186 0.142461 89.3252 0.449347 90.078C0.756234 90.8307 1.21101 91.5143 1.7867 92.0882C2.36239 92.6621 3.04732 93.1147 3.801 93.4192C4.55469 93.7238 5.36166 93.8741 6.17444 93.8612H99.8444C100.656 93.8714 101.463 93.7194 102.215 93.4139C102.968 93.1084 103.651 92.6557 104.227 92.0823C104.802 91.5089 105.257 90.8264 105.564 90.0749C105.872 89.3233 106.027 88.5179 106.019 87.7058V22.9397C106.029 22.126 105.877 21.3184 105.57 20.5647C105.263 19.8109 104.809 19.1261 104.233 18.5507C103.658 17.9753 102.973 17.5209 102.219 17.2142C101.466 16.9075 100.658 16.7548 99.8444 16.7651Z" fill="#FAD146"/>
<path d="M98.8698 24.0865H7.32178V79.6003H98.8698V24.0865Z" fill="white"/>
<path d="M57.8269 38.1943V65.7983C57.8269 69.7745 56.0873 72.7757 53.7743 72.7757H18.5047C16.1917 72.7757 14.4521 69.7745 14.4521 65.7983V38.1943C14.4521 34.2181 16.1917 31.2169 18.5047 31.2169H53.7934C56.0873 31.2169 57.8269 34.2181 57.8269 38.1943Z" fill="#1188E7"/>
<path d="M72.4702 62.6442H65.1486V72.2789H72.4702V62.6442Z" fill="#006BE0"/>
<path d="M91.5482 62.6442H72.2789V72.2789H91.5482V62.6442Z" fill="#43A3F9"/>
<path d="M72.4702 46.835H65.1486V56.4696H72.4702V46.835Z" fill="black"/>
<path d="M91.5482 46.835H72.2789V56.4696H91.5482V46.835Z" fill="#C4C2BB"/>
<path d="M72.4702 31.2169H65.1486V40.8515H72.4702V31.2169Z" fill="#FDB659"/>
<path d="M91.5482 31.2169H72.2789V40.8515H91.5482V31.2169Z" fill="#FFDD88"/>
<path d="M98.1052 1.06599e-10C99.4819 0.081946 100.775 0.686591 101.721 1.69035C102.667 2.69412 103.193 4.0212 103.193 5.40035C103.193 6.77951 102.667 8.10659 101.721 9.11035C100.775 10.1141 99.4819 10.7188 98.1052 10.8007C96.6847 10.7714 95.3303 10.1941 94.3256 9.18937C93.3209 8.18468 92.7436 6.83047 92.7143 5.40992C92.7118 4.70039 92.8493 3.99732 93.1191 3.34107C93.3889 2.68482 93.7855 2.08828 94.2864 1.58567C94.7872 1.08306 95.3824 0.684268 96.0377 0.412161C96.693 0.140053 97.3957 -4.46109e-06 98.1052 1.06599e-10Z" fill="#FAD146"/>
<path d="M10.8007 98.6784C11.7535 98.6784 12.6848 98.9609 13.4771 99.4902C14.2693 100.02 14.8866 100.772 15.2512 101.652C15.6158 102.532 15.7113 103.501 15.5254 104.436C15.3396 105.37 14.8807 106.228 14.207 106.902C13.5333 107.576 12.6749 108.035 11.7404 108.22C10.806 108.406 9.83748 108.311 8.95723 107.946C8.07698 107.582 7.32454 106.964 6.79521 106.172C6.26587 105.38 5.98337 104.448 5.98337 103.496C5.97828 102.862 6.09941 102.233 6.3397 101.646C6.57999 101.059 6.93468 100.526 7.38302 100.078C7.83137 99.6297 8.3644 99.275 8.95116 99.0347C9.53792 98.7944 10.1667 98.6733 10.8007 98.6784Z" fill="#FAD146"/>
<path d="M73.445 103.496C74.3702 103.563 75.2356 103.977 75.8675 104.657C76.4993 105.336 76.8506 106.229 76.8506 107.157C76.8506 108.084 76.4993 108.977 75.8675 109.657C75.2356 110.336 74.3702 110.75 73.445 110.817H32.5743C31.6491 110.75 30.7835 110.336 30.1516 109.657C29.5198 108.977 29.1688 108.084 29.1688 107.157C29.1688 106.229 29.5198 105.336 30.1516 104.657C30.7835 103.977 31.6491 103.563 32.5743 103.496H73.445Z" fill="#FAD146"/>
<path d="M102.922 104.662C103.164 104.636 103.41 104.662 103.642 104.737C103.874 104.813 104.087 104.936 104.268 105.099C104.449 105.262 104.594 105.461 104.693 105.684C104.793 105.907 104.844 106.148 104.844 106.392C104.844 106.636 104.793 106.877 104.693 107.099C104.594 107.322 104.449 107.522 104.268 107.685C104.087 107.848 103.874 107.971 103.642 108.046C103.41 108.122 103.164 108.147 102.922 108.122C102.706 108.143 102.488 108.119 102.281 108.053C102.075 107.986 101.884 107.878 101.721 107.734C101.558 107.591 101.426 107.416 101.333 107.219C101.241 107.023 101.189 106.81 101.183 106.593C101.162 106.35 101.191 106.105 101.268 105.874C101.346 105.643 101.47 105.43 101.633 105.249C101.796 105.068 101.995 104.923 102.216 104.822C102.438 104.72 102.678 104.666 102.922 104.662Z" fill="white"/>
<path d="M83.653 97.5314C83.9978 97.5314 84.3349 97.6339 84.6214 97.8259C84.9079 98.0179 85.1309 98.2907 85.2619 98.6097C85.393 98.9287 85.4263 99.2794 85.3576 99.6174C85.2889 99.9553 85.1214 100.265 84.8762 100.508C84.631 100.75 84.3193 100.914 83.9806 100.979C83.6419 101.044 83.2914 101.007 82.9739 100.873C82.6564 100.738 82.3861 100.512 82.1973 100.223C82.0085 99.9349 81.9095 99.5967 81.9133 99.2518C81.9133 99.0243 81.9584 98.799 82.0461 98.589C82.1337 98.379 82.2623 98.1885 82.4241 98.0285C82.5859 97.8684 82.7777 97.7421 82.9886 97.6568C83.1996 97.5715 83.4254 97.5288 83.653 97.5314Z" fill="white"/>
<path d="M81.3399 1.16618C81.6847 1.1662 82.0218 1.26873 82.3083 1.46073C82.5947 1.65274 82.8175 1.92556 82.9486 2.24454C83.0797 2.56352 83.1132 2.91426 83.0445 3.25222C82.9758 3.59018 82.8081 3.9001 82.5629 4.14261C82.3177 4.38511 82.0059 4.54927 81.6672 4.61421C81.3286 4.67916 80.9783 4.64197 80.6608 4.50737C80.3433 4.37277 80.0728 4.14684 79.884 3.85827C79.6951 3.56969 79.5964 3.23149 79.6002 2.88664C79.6002 2.65909 79.6453 2.43379 79.733 2.2238C79.8206 2.01381 79.949 1.8233 80.1108 1.66328C80.2726 1.50327 80.4645 1.37694 80.6755 1.29161C80.8864 1.20628 81.1123 1.16365 81.3399 1.16618Z" fill="white"/>
<path d="M54.7489 84.9147C55.2225 85.3716 55.4972 85.9965 55.5136 86.6543C55.5317 86.9839 55.4717 87.3132 55.3388 87.6154C55.206 87.9176 55.004 88.1843 54.7489 88.3939C54.292 88.8674 53.6671 89.1421 53.0093 89.1585C52.3482 89.1487 51.7171 88.8817 51.2496 88.4141C50.782 87.9466 50.515 87.3154 50.5052 86.6543C50.4901 86.3251 50.5513 85.9968 50.6839 85.695C50.8165 85.3933 51.0171 85.1263 51.2699 84.9147C51.4948 84.6786 51.7644 84.4894 52.063 84.3581C52.3616 84.2269 52.6832 84.1562 53.0093 84.1501C53.3407 84.1148 53.6758 84.1668 53.981 84.3009C54.2861 84.4351 54.5508 84.6467 54.7489 84.9147Z" fill="white"/>
<path d="M34.314 1.16618C34.6588 1.1662 34.9959 1.26873 35.2824 1.46073C35.5689 1.65274 35.7916 1.92556 35.9227 2.24454C36.0538 2.56352 36.0871 2.91426 36.0184 3.25222C35.9497 3.59018 35.7822 3.9001 35.537 4.14261C35.2918 4.38511 34.9801 4.54927 34.6414 4.61421C34.3027 4.67916 33.9524 4.64197 33.6349 4.50737C33.3174 4.37277 33.0469 4.14684 32.8581 3.85827C32.6693 3.56969 32.5705 3.23149 32.5743 2.88664C32.5743 2.65909 32.6194 2.43379 32.7071 2.2238C32.7948 2.01381 32.9231 1.8233 33.0849 1.66328C33.2467 1.50327 33.4387 1.37694 33.6496 1.29161C33.8606 1.20628 34.0864 1.16365 34.314 1.16618Z" fill="white"/>
<path d="M24.6793 97.5314C25.0241 97.5314 25.3612 97.6339 25.6477 97.8259C25.9342 98.0179 26.1572 98.2907 26.2882 98.6097C26.4193 98.9287 26.4526 99.2794 26.3839 99.6174C26.3152 99.9553 26.1475 100.265 25.9023 100.508C25.6571 100.75 25.3454 100.914 25.0067 100.979C24.668 101.044 24.3177 101.007 24.0002 100.873C23.6827 100.738 23.4122 100.512 23.2234 100.223C23.0345 99.9349 22.9358 99.5967 22.9396 99.2518C22.9396 99.0243 22.9847 98.799 23.0724 98.589C23.1601 98.379 23.2884 98.1885 23.4502 98.0285C23.612 97.8684 23.804 97.7421 24.0149 97.6568C24.2259 97.5715 24.4517 97.5288 24.6793 97.5314Z" fill="white"/>
<path d="M19.8618 9.6347C20.2058 9.6347 20.5423 9.73674 20.8283 9.92788C21.1144 10.119 21.3372 10.3907 21.4689 10.7086C21.6006 11.0265 21.635 11.3762 21.5678 11.7137C21.5007 12.0511 21.3351 12.3611 21.0918 12.6044C20.8485 12.8476 20.5385 13.0133 20.2011 13.0805C19.8636 13.1476 19.5139 13.1131 19.196 12.9815C18.8782 12.8498 18.6066 12.6268 18.4155 12.3408C18.2243 12.0547 18.1221 11.7184 18.1221 11.3743C18.1221 10.9129 18.3055 10.4705 18.6318 10.1442C18.958 9.818 19.4004 9.6347 19.8618 9.6347Z" fill="white"/>
</g>
<defs>
<clipPath id="clip0_1_561">
<rect width="106" height="110.817" fill="white"/>
</clipPath>
</defs>
</svg>
